<svg width="32" height="33" viewBox="0 0 32 33" fill="none" xmlns="http://www.w3.org/2000/svg">
<path opacity="0.1" fill-rule="evenodd" clip-rule="evenodd" d="M0 16.9795C0 8.14294 7.16344 0.979492 16 0.979492C24.8366 0.979492 32 8.14294 32 16.9795C32 25.816 24.8366 32.9795 16 32.9795C7.16344 32.9795 0 25.816 0 16.9795Z" fill="white"/>
<path fill-rule="evenodd" clip-rule="evenodd" d="M24.5335 16.9678C24.5335 17.5449 24.4747 18.1212 24.3593 18.6829C24.2468 19.2313 24.0801 19.7697 23.8618 20.2844C23.6485 20.79 23.3839 21.2772 23.0747 21.7316C22.7701 22.1831 22.4192 22.6066 22.0338 22.9928C21.6475 23.3772 21.2225 23.7271 20.7712 24.033C20.3154 24.34 19.8275 24.6042 19.3216 24.8186C18.8061 25.0357 18.2665 25.2022 17.7186 25.3145C17.1561 25.4302 16.5777 25.4893 15.9997 25.4893C15.4214 25.4893 14.843 25.4302 14.2813 25.3145C13.7326 25.2022 13.1929 25.0357 12.6779 24.8186C12.1721 24.6042 11.6837 24.34 11.2278 24.033C10.7766 23.7271 10.3516 23.3772 9.96611 22.9928C9.58027 22.6066 9.2294 22.1831 8.92439 21.7316C8.61687 21.2772 8.35184 20.79 8.13768 20.2844C7.9193 19.7697 7.75224 19.2313 7.63931 18.6829C7.52515 18.1212 7.4668 17.5449 7.4668 16.9678C7.4668 16.3903 7.52511 15.8127 7.63934 15.2522C7.75227 14.7038 7.91934 14.1646 8.13771 13.6507C8.35187 13.1448 8.6169 12.6571 8.92442 12.2027C9.22943 11.7509 9.5803 11.3281 9.96614 10.9416C10.3516 10.5571 10.7766 10.208 11.2279 9.90261C11.6837 9.59427 12.1721 9.33009 12.6779 9.11537C13.193 8.89771 13.7326 8.73088 14.2814 8.61939C14.8431 8.50456 15.4214 8.44629 15.9998 8.44629C16.5777 8.44629 17.1561 8.50456 17.7186 8.61939C18.2665 8.73092 18.8061 8.89774 19.3216 9.11537C19.8275 9.33005 20.3154 9.59427 20.7713 9.90261C21.2225 10.208 21.6476 10.5571 22.0338 10.9416C22.4193 11.3281 22.7701 11.7509 23.0747 12.2027C23.3839 12.6571 23.6485 13.1448 23.8618 13.6507C24.0801 14.1646 24.2468 14.7038 24.3593 15.2522C24.4747 15.8127 24.5335 16.3903 24.5335 16.9678ZM12.8904 10.3857C10.8582 11.3439 9.34143 13.2138 8.86848 15.4674C9.0606 15.469 12.0974 15.5073 15.5963 14.579C14.335 12.3413 12.9875 10.5151 12.8904 10.3857ZM16.2001 15.6996C12.4479 16.8213 8.84724 16.7406 8.71808 16.7356C8.71597 16.8138 8.71223 16.8895 8.71223 16.9678C8.71223 18.8372 9.41851 20.5415 10.5794 21.8302C10.5769 21.8264 12.5712 18.2934 16.5039 17.0235C16.5989 16.9919 16.6956 16.9636 16.7914 16.9362C16.6085 16.5226 16.4089 16.1082 16.2001 15.6996ZM20.8125 11.5062C19.5295 10.3765 17.8448 9.69125 15.9997 9.69125C15.4076 9.69125 14.833 9.76283 14.2825 9.89513C14.3917 10.0416 15.7605 11.8549 17.0068 14.14C19.7566 13.1106 20.7945 11.5328 20.8125 11.5062ZM17.2882 18.142C17.2719 18.1474 17.2557 18.152 17.2398 18.1578C12.9401 19.6546 11.536 22.671 11.5208 22.704C12.7579 23.6647 14.3097 24.2443 15.9998 24.2443C17.009 24.2443 17.9703 24.0391 18.8449 23.6676C18.737 23.0318 18.3136 20.8033 17.2882 18.142ZM20.072 23.0027C21.7083 21.9001 22.8705 20.1492 23.1946 18.1211C23.0446 18.0729 21.0058 17.4283 18.6536 17.8049C19.6095 20.428 19.9978 22.5642 20.072 23.0027ZM17.5678 15.2244C17.7369 15.5714 17.9007 15.9246 18.0519 16.2796C18.1057 16.4069 18.1582 16.5317 18.2095 16.6565C20.7129 16.342 23.1793 16.8712 23.2847 16.8928C23.2681 15.1678 22.6501 13.5845 21.6276 12.345C21.6138 12.3646 20.445 14.051 17.5678 15.2244Z" fill="white"/>
</svg>
