<svg width="84" height="28" viewBox="0 0 84 28" fill="none" xmlns="http://www.w3.org/2000/svg">
<g clip-path="url(#clip0_675_27634)">
<path d="M35.7466 14.3588C35.7466 18.2454 32.6614 21.1093 28.8752 21.1093C25.0891 21.1093 22.0039 18.2454 22.0039 14.3588C22.0039 10.4449 25.0891 7.6084 28.8752 7.6084C32.6614 7.6084 35.7466 10.4449 35.7466 14.3588ZM32.7386 14.3588C32.7386 11.9301 30.9505 10.2684 28.8752 10.2684C26.7999 10.2684 25.0118 11.9301 25.0118 14.3588C25.0118 16.7632 26.7999 18.4493 28.8752 18.4493C30.9505 18.4493 32.7386 16.7601 32.7386 14.3588Z" fill="#EA4335"/>
<path d="M50.5698 14.3588C50.5698 18.2454 47.4846 21.1093 43.6985 21.1093C39.9123 21.1093 36.8271 18.2454 36.8271 14.3588C36.8271 10.448 39.9123 7.6084 43.6985 7.6084C47.4846 7.6084 50.5698 10.4449 50.5698 14.3588ZM47.5619 14.3588C47.5619 11.9301 45.7738 10.2684 43.6985 10.2684C41.6232 10.2684 39.8351 11.9301 39.8351 14.3588C39.8351 16.7632 41.6232 18.4493 43.6985 18.4493C45.7738 18.4493 47.5619 16.7601 47.5619 14.3588Z" fill="#FBBC05"/>
<path d="M64.7757 8.01622V20.1354C64.7757 25.1206 61.7925 27.1567 58.2657 27.1567C54.9459 27.1567 52.9478 24.9684 52.1942 23.1788L54.8131 22.1045C55.2794 23.2032 56.422 24.4997 58.2626 24.4997C60.5201 24.4997 61.9191 23.1271 61.9191 20.5432V19.5723H61.8141C61.1409 20.391 59.8438 21.1062 58.207 21.1062C54.7822 21.1062 51.6445 18.1662 51.6445 14.3832C51.6445 10.5727 54.7822 7.6084 58.207 7.6084C59.8407 7.6084 61.1378 8.32362 61.8141 9.11796H61.9191V8.01927H64.7757V8.01622ZM62.1322 14.3832C62.1322 12.0062 60.5232 10.2684 58.4757 10.2684C56.4004 10.2684 54.6617 12.0062 54.6617 14.3832C54.6617 16.7358 56.4004 18.4493 58.4757 18.4493C60.5232 18.4493 62.1322 16.7358 62.1322 14.3832Z" fill="#4285F4"/>
<path d="M69.4856 0.913086V20.6957H66.5518V0.913086H69.4856Z" fill="#34A853"/>
<path d="M80.9176 16.5807L83.2523 18.1146C82.4988 19.2133 80.6829 21.1063 77.5453 21.1063C73.6541 21.1063 70.748 18.142 70.748 14.3559C70.748 10.3416 73.6788 7.60547 77.2086 7.60547C80.7632 7.60547 82.5019 10.3933 83.0701 11.8998L83.382 12.6668L74.2254 16.4042C74.9264 17.7585 76.0166 18.4494 77.5453 18.4494C79.077 18.4494 80.1394 17.7068 80.9176 16.5807ZM73.7313 14.152L79.8522 11.6472C79.5156 10.8042 78.5026 10.2168 77.3105 10.2168C75.7819 10.2168 73.6541 11.5468 73.7313 14.152Z" fill="#EA4335"/>
<path d="M10.8985 12.6026V9.73866H20.6913C20.7871 10.2378 20.8365 10.8282 20.8365 11.4674C20.8365 13.6161 20.2404 16.273 18.3196 18.1661C16.4512 20.0834 14.064 21.1061 10.9016 21.1061C5.04015 21.1061 0.111328 16.4008 0.111328 10.6243C0.111328 4.8478 5.04015 0.142578 10.9016 0.142578C14.1443 0.142578 16.4543 1.39649 18.1899 3.03084L16.1393 5.05171C14.8947 3.90127 13.2085 3.00649 10.8985 3.00649C6.61824 3.00649 3.27059 6.40606 3.27059 10.6243C3.27059 14.8426 6.61824 18.2421 10.8985 18.2421C13.6749 18.2421 15.256 17.1434 16.269 16.1452C17.0904 15.3356 17.6309 14.1791 17.844 12.5995L10.8985 12.6026Z" fill="#4285F4"/>
</g>
<defs>
<clipPath id="clip0_675_27634">
<rect width="84" height="28" fill="white"/>
</clipPath>
</defs>
</svg>
