<svg width="84" height="24" viewBox="0 0 84 24" fill="none" xmlns="http://www.w3.org/2000/svg">
<g clip-path="url(#clip0_675_27623)">
<path d="M9.09675 3.97363V10.7434H2.92846V3.97363H0V20.1337H2.92846V13.5838H9.09675V20.1337H12.0252V3.97363H9.09675Z" fill="#33475B"/>
<path d="M21.3976 14.9099C21.3976 15.5575 21.1424 16.1786 20.688 16.6366C20.2337 17.0946 19.6174 17.3518 18.9749 17.3518C18.3324 17.3518 17.7162 17.0946 17.2618 16.6366C16.8075 16.1786 16.5522 15.5575 16.5522 14.9099V7.98828H13.7744V14.9099C13.7744 16.2988 14.3218 17.6308 15.2961 18.6128C16.2705 19.5949 17.592 20.1466 18.9699 20.1466C20.3478 20.1466 21.6693 19.5949 22.6436 18.6128C23.618 17.6308 24.1654 16.2988 24.1654 14.9099V7.98828H21.3976V14.9099Z" fill="#33475B"/>
<path d="M41.9787 8.70132C41.9787 7.28258 42.9099 6.83281 43.9301 6.83281C44.7522 6.83281 45.8384 7.46336 46.5486 8.22841L48.368 6.06776C47.4597 4.82979 45.6174 3.97363 44.1094 3.97363C41.0963 3.97363 38.9168 5.75248 38.9168 8.70132C38.9168 14.1724 45.5514 12.4369 45.5514 15.4986C45.5514 16.4429 44.6417 17.2774 43.6001 17.2774C41.9572 17.2774 41.4249 16.4675 40.6702 15.6114L38.6514 17.7272C39.9427 19.3252 41.5354 20.1366 43.4437 20.1366C46.3061 20.1366 48.609 18.336 48.609 15.5217C48.609 9.44757 41.9744 11.3349 41.9744 8.70132" fill="#33475B"/>
<path d="M83.0229 17.5522C81.3815 17.5522 80.9152 16.8363 80.9152 15.7401V10.888H83.4663V8.42942H80.9152V5.18555L78.0986 6.45967V16.3431C78.0986 18.8711 79.829 20.1452 82.2022 20.1452C82.5744 20.1521 82.9464 20.122 83.3128 20.0556L84 17.5059C83.6901 17.5276 83.3343 17.5493 83.0229 17.5493" fill="#33475B"/>
<path d="M31.9702 8.06911C30.5942 8.06911 29.6343 8.47116 28.7059 9.3895V4.07031H25.9238V13.9292C25.9238 17.6199 28.5711 20.1479 31.5454 20.1479C34.8455 20.1479 37.7482 17.5751 37.7482 14.11C37.7482 10.6882 35.0765 8.07055 31.9702 8.07055V8.06911ZM31.9529 17.3264C31.3286 17.3264 30.7183 17.1398 30.1992 16.7901C29.6801 16.4405 29.2755 15.9436 29.0366 15.3622C28.7977 14.7809 28.7352 14.1411 28.857 13.524C28.9788 12.9068 29.2794 12.3398 29.7209 11.8949C30.1623 11.4499 30.7248 11.1469 31.3371 11.0241C31.9494 10.9014 32.5841 10.9644 33.1609 11.2052C33.7377 11.446 34.2307 11.8538 34.5776 12.377C34.9244 12.9002 35.1095 13.5154 35.1095 14.1447C35.1095 14.9885 34.777 15.7978 34.185 16.3945C33.593 16.9911 32.7901 17.3264 31.9529 17.3264Z" fill="#33475B"/>
<path d="M62.1788 13.9628C62.1788 10.4918 59.2819 7.9248 55.9761 7.9248C53.0017 7.9248 50.3545 10.4528 50.3545 14.1435V24.0082H53.1366V18.6818C54.0635 19.5987 55.0248 20.0022 56.3994 20.0022C59.5058 20.0022 62.1774 17.386 62.1774 13.9628H62.1788ZM59.5445 13.9281C59.5445 14.5573 59.3594 15.1725 59.0125 15.6957C58.6657 16.2189 58.1727 16.6267 57.5959 16.8675C57.0191 17.1084 56.3844 17.1714 55.7721 17.0486C55.1598 16.9258 54.5973 16.6228 54.1558 16.1778C53.7144 15.7329 53.4138 15.166 53.292 14.5488C53.1702 13.9316 53.2327 13.2919 53.4716 12.7105C53.7105 12.1291 54.1151 11.6322 54.6342 11.2826C55.1533 10.933 55.7636 10.7464 56.3879 10.7464C57.2251 10.7464 58.028 11.0816 58.6199 11.6783C59.2119 12.2749 59.5445 13.0842 59.5445 13.9281Z" fill="#33475B"/>
<path d="M71.1666 7.78836V4.97112C71.536 4.79716 71.8488 4.52103 72.0685 4.17487C72.2882 3.82872 72.4059 3.42677 72.4077 3.01584V2.95076C72.4077 2.37541 72.181 1.82364 71.7774 1.41681C71.3738 1.00998 70.8263 0.781427 70.2555 0.781427H70.191C69.6202 0.781427 69.0727 1.00998 68.6691 1.41681C68.2655 1.82364 68.0387 2.37541 68.0387 2.95076V3.01584C68.0406 3.42677 68.1583 3.82872 68.378 4.17487C68.5977 4.52103 68.9105 4.79716 69.2798 4.97112V7.78836C68.2182 7.95206 67.2184 8.39559 66.3815 9.07405L58.7167 3.05633C58.771 2.85789 58.7999 2.65329 58.8028 2.44747C58.8037 1.96401 58.6622 1.49116 58.3964 1.08872C58.1306 0.686279 57.7524 0.372335 57.3096 0.186596C56.8667 0.000857302 56.3792 -0.0483321 55.9086 0.0452496C55.438 0.138831 55.0056 0.37098 54.6659 0.712332C54.3262 1.05368 54.0946 1.4889 54.0004 1.96294C53.9061 2.43698 53.9535 2.92854 54.1365 3.37545C54.3194 3.82235 54.6298 4.20452 55.0283 4.47363C55.4267 4.74273 55.8954 4.88667 56.3751 4.88724C56.7945 4.88535 57.2061 4.77266 57.5689 4.5604L65.1174 10.4798C64.4392 11.5123 64.0853 12.7269 64.1019 13.9652C64.1186 15.2035 64.5049 16.4079 65.2107 17.4216L62.915 19.7356C62.7293 19.6758 62.5359 19.6441 62.3411 19.6416C61.9473 19.6418 61.5625 19.7598 61.2352 19.9805C60.9079 20.2011 60.6529 20.5147 60.5023 20.8814C60.3517 21.2481 60.3124 21.6516 60.3893 22.0409C60.4662 22.4301 60.6558 22.7877 60.9343 23.0683C61.2127 23.349 61.5674 23.5401 61.9536 23.6176C62.3398 23.6951 62.7401 23.6555 63.104 23.5037C63.4678 23.352 63.7789 23.0949 63.9978 22.765C64.2167 22.4352 64.3337 22.0473 64.334 21.6504C64.3316 21.4539 64.3001 21.259 64.2408 21.0719L66.5121 18.7825C67.2527 19.357 68.114 19.753 69.0298 19.9401C69.9457 20.1273 70.892 20.1007 71.7961 19.8624C72.7002 19.6241 73.5383 19.1804 74.246 18.5652C74.9537 17.95 75.5124 17.1798 75.8792 16.3134C76.246 15.447 76.4112 14.5075 76.3621 13.5669C76.3131 12.6262 76.0511 11.7093 75.5962 10.8865C75.1414 10.0636 74.5057 9.35662 73.7379 8.81962C72.9701 8.28261 72.0906 7.92985 71.1666 7.78836ZM70.2254 17.0528C69.6041 17.0523 68.9969 16.8661 68.4806 16.5178C67.9642 16.1695 67.5619 15.6747 67.3245 15.096C67.0871 14.5173 67.0252 13.8806 67.1466 13.2665C67.2681 12.6523 67.5674 12.0883 68.0069 11.6455C68.4463 11.2028 69.006 10.9014 69.6154 10.7792C70.2248 10.6571 70.8564 10.7198 71.4304 10.9593C72.0044 11.1989 72.4951 11.6047 72.8404 12.1253C73.1858 12.6458 73.3702 13.2579 73.3705 13.8842C73.3705 14.7242 73.0395 15.5298 72.4502 16.1237C71.8609 16.7177 71.0616 17.0514 70.2283 17.0514" fill="#FF7A59"/>
</g>
<defs>
<clipPath id="clip0_675_27623">
<rect width="84" height="24" fill="white"/>
</clipPath>
</defs>
</svg>
